<svg width="24" height="24" viewBox="0 0 24 24" fill="none" xmlns="http://www.w3.org/2000/svg">
<path fill-rule="evenodd" clip-rule="evenodd" d="M4.5 12C4.5 7.85786 7.85786 4.5 12 4.5C16.1421 4.5 19.5 7.85786 19.5 12C19.5 16.0651 16.2659 19.3748 12.2304 19.4965C11.8841 18.9006 11.2388 18.5 10.5 18.5C9.39543 18.5 8.5 19.3954 8.5 20.5V21.5H12H12.5V21.4871C16.6884 21.2699 20.1592 18.3399 21.1889 14.4205C22.5137 14.1092 23.5 12.9198 23.5 11.5C23.5 9.95883 22.3379 8.68909 20.8421 8.5193C19.4535 4.99448 16.018 2.5 12 2.5C7.78421 2.5 4.20979 5.24606 2.9679 9.04705C1.56487 9.29818 0.5 10.5247 0.5 12C0.5 13.6569 1.84315 15 3.5 15H4.5V12ZM10 11.5C10.8284 11.5 11.5 10.8284 11.5 10C11.5 9.17157 10.8284 8.5 10 8.5C9.17157 8.5 8.5 9.17157 8.5 10C8.5 10.8284 9.17157 11.5 10 11.5ZM14 11.5C14.8284 11.5 15.5 10.8284 15.5 10C15.5 9.17157 14.8284 8.5 14 8.5C13.1716 8.5 12.5 9.17157 12.5 10C12.5 10.8284 13.1716 11.5 14 11.5ZM11.9997 15.5C10.2365 15.5 8.77777 14.1961 8.53516 12.5H15.4643C15.2217 14.1961 13.7629 15.5 11.9997 15.5Z" fill="black"/>
</svg>
